The strange life of Austrian painter Egon Schiele, one of the fathers of expressionism, is chronicled in this dramatic biography. He began his career during his stint as a soldier in WWI. He gained notoriety for his pornographic nudes and was eventually arrested for creating them. At the same time, his first love dies, and his next lover dumps him. His paintings finally become popular at the war's end. Unfortunately, he dies of a strange disease before he can enjoy his success. 

   General
      Complete name : Egon Schiele - Exzesse.avi
      Format : AVI
      Format/Info : Audio Video Interleave
      File size : 1.37 GiB
      Duration : 1h 29mn
      Overall bit rate : 2 193 Kbps
      Writing application : VirtualDubMod 1.5.10.2 (build 2540/release)
      Writing library : VirtualDubMod build 2540/release
   Video #0
      ID : 0
      Format : MPEG-4 Visual
      Format profile : AdvancedSimple@L5
      Format settings, BVOP : Yes
      Format settings, QPel : No
      Format settings, GMC : No warppoints
      Format settings, Matrix : Default (MPEG)
      Codec ID : XVID
      Codec ID/Hint : XviD
      Duration : 1h 29mn
      Bit rate : 1 794 Kbps
      Width : 720 pixels
      Height : 392 pixels
      Display aspect ratio : 16:9
      Frame rate : 25.000 fps
      Resolution : 24 bits
      Colorimetry : 4:2:0
      Scan type : Progressive
      Bits/(Pixel*Frame) : 0.254
      Stream size : 1.12 GiB (82%)
      Writing library : XviD 1.2.1 (UTC 2008-12-04)
   Audio #1
      ID : 1
      Format : AC-3
      Format/Info : Audio Coding 3
      Codec ID : 2000
      Duration : 1h 29mn
      Bit rate mode : Constant
      Bit rate : 192 Kbps
      Channel(s) : 2 channels
      Channel positions : L R
      Sampling rate : 48.0 KHz
      Stream size : 123 MiB (9%)
      Alignment : Split accross interleaves
      Interleave, duration : 40 ms (1.00 video frame)
      Interleave, preload duration : 500 ms
   Audio #2
      ID : 2
      Format : AC-3
      Format/Info : Audio Coding 3
      Codec ID : 2000
      Duration : 1h 29mn
      Bit rate mode : Constant
      Bit rate : 192 Kbps
      Channel(s) : 2 channels
      Channel positions : L R
      Sampling rate : 48.0 KHz
      Stream size : 123 MiB (9%)
      Alignment : Split accross interleaves
      Interleave, duration : 40 ms (1.00 video frame)
      Interleave, preload duration : 500 ms
 
http://www.imdb.com/title/tt0082311/

Dual audio, German and French; German, English and Portuguese subtitles

Posted originally at KG by crock99, whom we thank

Herbert Vesely - Egon Schiele - Exzesse (1981)